<?xml version="1.0" encoding="UTF-8"?>
<svg version="1.1" xmlns="http://www.w3.org/2000/svg" width="200" height="125">
<path d="M0 0 C66 0 132 0 200 0 C200 41.25 200 82.5 200 125 C134 125 68 125 0 125 C0 83.75 0 42.5 0 0 Z " fill="#FDFDFD" transform="translate(0,0)"/>
<path d="M0 0 C3.53846242 0.54016351 4.75600991 0.82459646 6.96875 3.5390625 C7.484375 4.5290625 8 5.5190625 8.53125 6.5390625 C9.376875 5.5490625 10.2225 4.5590625 11.09375 3.5390625 C15.86724716 -0.53302284 20.87509606 -0.42257146 26.93359375 -0.171875 C32.72078009 0.97173837 35.13032169 3.95248946 38.53125 8.5390625 C39.77172797 9.96407438 41.02147624 11.38108007 42.28125 12.7890625 C42.84328125 13.45035156 43.4053125 14.11164062 43.984375 14.79296875 C45.60579225 16.6974617 45.60579225 16.6974617 48.03125 18.7265625 C49.53125 20.5390625 49.53125 20.5390625 49.53125 23.0390625 C48.2951807 26.12923575 47.15561254 27.47553437 44.53125 29.5390625 C38.84575683 30.53742732 32.20209094 30.96077168 26.9921875 28.1875 C25.09375 26.5390625 25.09375 26.5390625 22.53125 23.5390625 C21.87125 24.51359375 21.21125 25.488125 20.53125 26.4921875 C18.16646697 29.3199351 17.59685841 29.52534927 13.71875 30.3359375 C12.32291866 30.35173936 10.92640162 30.33539595 9.53125 30.2890625 C8.48324219 30.32386719 8.48324219 30.32386719 7.4140625 30.359375 C4.47175253 30.32606583 2.19267744 30.10840258 -0.08203125 28.15039062 C-1.46875 26.4921875 -1.46875 26.4921875 -3.46875 23.5390625 C-4.314375 24.5290625 -5.16 25.5190625 -6.03125 26.5390625 C-10.81505754 30.65627391 -15.9072743 30.36476856 -21.9765625 30.1484375 C-25.49103313 29.53517417 -26.93201352 29.02513743 -29.40625 26.5390625 C-30.086875 25.5490625 -30.7675 24.5590625 -31.46875 23.5390625 C-30.0070746 20.12848656 -28.39283866 17.84755355 -25.46875 15.5390625 C-22.015625 15.1484375 -22.015625 15.1484375 -18.21875 15.2890625 C-16.95546875 15.32515625 -15.6921875 15.36125 -14.390625 15.3984375 C-12.94429687 15.46804687 -12.94429687 15.46804687 -11.46875 15.5390625 C-13.44875 13.2290625 -15.42875 10.9190625 -17.46875 8.5390625 C-13.24425831 0.09007913 -9.02566566 -0.35433849 0 0 Z " fill="#9F65CA" transform="translate(90.46875,30.4609375)"/>
<path d="M0 0 C5.90098346 1.02084524 8.25898299 3.99577293 11.703125 8.640625 C12.94360297 10.06563688 14.19335124 11.48264257 15.453125 12.890625 C16.01515625 13.55191406 16.5771875 14.21320312 17.15625 14.89453125 C18.77766725 16.7990242 18.77766725 16.7990242 21.203125 18.828125 C22.703125 20.640625 22.703125 20.640625 22.703125 23.140625 C21.46953994 26.22458764 20.31173601 27.56995996 17.703125 29.640625 C11.71426136 30.90253922 5.2641217 31.2663647 -0.03515625 27.90234375 C-2.33651604 25.60098396 -4.32067304 23.2248891 -6.296875 20.640625 C-7.58078451 19.17545768 -8.87193845 17.71659152 -10.171875 16.265625 C-10.70554687 15.63914062 -11.23921875 15.01265625 -11.7890625 14.3671875 C-13.27055876 12.60948313 -13.27055876 12.60948313 -14.99609375 11.06640625 C-16.296875 9.640625 -16.296875 9.640625 -16.234375 7.203125 C-13.40825874 -0.52159278 -7.27630525 -0.35993363 0 0 Z " fill="#1735B1" transform="translate(117.296875,30.359375)"/>
<path d="M0 0 C3.61911275 0.54227748 5.01783582 0.97928125 7.53515625 3.5390625 C8.55609375 5.0240625 8.55609375 5.0240625 9.59765625 6.5390625 C8.13478606 9.95242627 6.51268919 12.21659363 3.59765625 14.5390625 C-1.90529168 15.49555684 -8.74560267 16.08920148 -13.71875 13.1875 C-15.33984375 11.5390625 -15.33984375 11.5390625 -17.40234375 8.5390625 C-13.78415411 0.09662 -8.54366397 -0.33475848 0 0 Z " fill="#85C6EC" transform="translate(76.40234375,45.4609375)"/>
<path d="M0 0 C10.75 -0.125 10.75 -0.125 13 1 C12.79375 1.5775 12.5875 2.155 12.375 2.75 C11.91338739 5.51967567 12.57055055 6.64561267 14 9 C9.43362969 12.04424687 5.43284541 11.12783166 0 11 C0 7.37 0 3.74 0 0 Z " fill="#515151" transform="translate(119,68)"/>
<path d="M0 0 C3.5625 0.3125 3.5625 0.3125 5.5 1.6875 C6.5625 3.3125 6.5625 3.3125 6.5625 5.3125 C3.9225 5.6425 1.2825 5.9725 -1.4375 6.3125 C0.8725 6.6425 3.1825 6.9725 5.5625 7.3125 C5.2325 7.9725 4.9025 8.6325 4.5625 9.3125 C-2.83704511 9.67641205 -2.83704511 9.67641205 -5.5 8.0625 C-6.4375 6.3125 -6.4375 6.3125 -6.25 4.25 C-4.77905983 0.74237344 -3.8059492 0.34599538 0 0 Z " fill="#0C0C0C" transform="translate(85.4375,69.6875)"/>
<path d="M0 0 C1.81242052 -0.02687279 3.62495233 -0.04633715 5.4375 -0.0625 C6.44683594 -0.07410156 7.45617188 -0.08570312 8.49609375 -0.09765625 C11 0 11 0 12 1 C12.14115161 3.67058851 12.04247107 6.32432238 12 9 C10.68 9 9.36 9 8 9 C8 6.69 8 4.38 8 2 C7.01 2.33 6.02 2.66 5 3 C4.67 4.98 4.34 6.96 4 9 C2.68 9 1.36 9 0 9 C0 6.03 0 3.06 0 0 Z " fill="#1F1F1F" transform="translate(55,70)"/>
<path d="M0 0 C1.81242052 -0.02687279 3.62495233 -0.04633715 5.4375 -0.0625 C6.44683594 -0.07410156 7.45617187 -0.08570312 8.49609375 -0.09765625 C11 0 11 0 12 1 C12.14115161 3.67058851 12.04247107 6.32432238 12 9 C10.68 9 9.36 9 8 9 C8 6.69 8 4.38 8 2 C7.01 2.33 6.02 2.66 5 3 C4.67 4.98 4.34 6.96 4 9 C2.68 9 1.36 9 0 9 C0 6.03 0 3.06 0 0 Z " fill="#1B1B1B" transform="translate(104,70)"/>
<path d="M0 0 C0.78375 0.165 1.5675 0.33 2.375 0.5 C5.9124162 1.17379356 8.49561161 0.73776598 12 0 C11.608125 0.7425 11.21625 1.485 10.8125 2.25 C10.544375 3.1575 10.27625 4.065 10 5 C11.26352052 7.32511472 11.26352052 7.32511472 13 9 C11.35 9 9.7 9 8 9 C7.67 8.01 7.34 7.02 7 6 C6.34 6 5.68 6 5 6 C4.67 6.99 4.34 7.98 4 9 C2.68 8.67 1.36 8.34 0 8 C0.66 7.34 1.32 6.68 2 6 C1.64644564 3.73725212 1.02455574 2.04911148 0 0 Z " fill="#141414" transform="translate(141,70)"/>
<path d="M0 0 C1.32 0 2.64 0 4 0 C4 0.66 4 1.32 4 2 C4.66 2 5.32 2 6 2 C6 2.66 6 3.32 6 4 C5.34 4 4.68 4 4 4 C4 5.65 4 7.3 4 9 C4.99 9 5.98 9 7 9 C7 9.66 7 10.32 7 11 C4.125 11.125 4.125 11.125 1 11 C-1.76223278 8.23776722 -1.57856291 5.79293383 -2 2 C-1.34 2 -0.68 2 0 2 C0 1.34 0 0.68 0 0 Z " fill="#1E1E1E" transform="translate(71,68)"/>
<path d="M0 0 C2.97 0 5.94 0 9 0 C8.67 0.99 8.34 1.98 8 3 C7.01 3.33 6.02 3.66 5 4 C4.67 5.65 4.34 7.3 4 9 C2.68 9 1.36 9 0 9 C0 6.03 0 3.06 0 0 Z " fill="#181818" transform="translate(94,70)"/>
<path d="M0 0 C1.32 0 2.64 0 4 0 C4 3.63 4 7.26 4 11 C2.68 11 1.36 11 0 11 C0 7.37 0 3.74 0 0 Z " fill="#030303" transform="translate(48,68)"/>
<path d="M0 0 C2.31 0 4.62 0 7 0 C5.68 0.33 4.36 0.66 3 1 C3 1.99 3 2.98 3 4 C3.99 4.33 4.98 4.66 6 5 C5.01 5.495 5.01 5.495 4 6 C3.67 6.99 3.34 7.98 3 9 C4.32 9.33 5.64 9.66 7 10 C4.69 10 2.38 10 0 10 C0 6.7 0 3.4 0 0 Z " fill="#000000" transform="translate(120,68)"/>
<path d="M0 0 C1.32 0 2.64 0 4 0 C4 2.97 4 5.94 4 9 C2.68 9 1.36 9 0 9 C0 6.03 0 3.06 0 0 Z " fill="#0A0A0A" transform="translate(135,70)"/>
<path d="M0 0 C2.0625 0.4375 2.0625 0.4375 4 1 C4 3.64 4 6.28 4 9 C2.68 9 1.36 9 0 9 C-0.87890625 2.84765625 -0.87890625 2.84765625 -1 1 C-0.67 0.67 -0.34 0.34 0 0 Z " fill="#060606" transform="translate(112,70)"/>
<path d="M0 0 C2.0625 0.4375 2.0625 0.4375 4 1 C4 3.64 4 6.28 4 9 C2.68 9 1.36 9 0 9 C-0.87890625 2.84765625 -0.87890625 2.84765625 -1 1 C-0.67 0.67 -0.34 0.34 0 0 Z " fill="#090909" transform="translate(63,70)"/>
<path d="M0 0 C1.65 0 3.3 0 5 0 C5 0.99 5 1.98 5 3 C6.32 3 7.64 3 9 3 C8.67 3.99 8.34 4.98 8 6 C6.68 5.34 5.36 4.68 4 4 C4 3.34 4 2.68 4 2 C2.68 2 1.36 2 0 2 C0 2.66 0 3.32 0 4 C-0.66 4 -1.32 4 -2 4 C-1.34 2.68 -0.68 1.36 0 0 Z " fill="#5B5B5B" transform="translate(75,86)"/>
<path d="M0 0 C0.33 1.32 0.66 2.64 1 4 C0.67 3.34 0.34 2.68 0 2 C-0.66 2 -1.32 2 -2 2 C-2 2.66 -2 3.32 -2 4 C-2.66 4 -3.32 4 -4 4 C-4 3.34 -4 2.68 -4 2 C-4.66 2 -5.32 2 -6 2 C-6 2.66 -6 3.32 -6 4 C-6.66 4 -7.32 4 -8 4 C-8 3.01 -8 2.02 -8 1 C-5.29120665 -0.35439668 -2.99066732 -0.06501451 0 0 Z " fill="#4F4F4F" transform="translate(156,86)"/>
<path d="M0 0 C0 1.65 0 3.3 0 5 C-1.32 5.33 -2.64 5.66 -4 6 C-4.66 5.01 -5.32 4.02 -6 3 C-2.25 0 -2.25 0 0 0 Z " fill="#5F5F5F" transform="translate(133,85)"/>
<path d="M0 0 C0.66 0 1.32 0 2 0 C2.33 0.66 2.66 1.32 3 2 C4.65 2 6.3 2 8 2 C8 2.66 8 3.32 8 4 C5.69 4.66 3.38 5.32 1 6 C0 5 0 5 -0.0625 2.4375 C-0.041875 1.633125 -0.02125 0.82875 0 0 Z " fill="#515151" transform="translate(88,85)"/>
<path d="M0 0 C2.0625 0.4375 2.0625 0.4375 4 1 C4 1.99 4 2.98 4 4 C2.68 4.33 1.36 4.66 0 5 C-0.5625 3.0625 -0.5625 3.0625 -1 1 C-0.67 0.67 -0.34 0.34 0 0 Z " fill="#646464" transform="translate(50,86)"/>
<path d="M0 0 C1.32 0 2.64 0 4 0 C4 1.65 4 3.3 4 5 C2.68 5 1.36 5 0 5 C0 3.35 0 1.7 0 0 Z " fill="#757575" transform="translate(137,85)"/>
<path d="M0 0 C1.65 0 3.3 0 5 0 C5.33 1.32 5.66 2.64 6 4 C4.35 4 2.7 4 1 4 C0.67 2.68 0.34 1.36 0 0 Z " fill="#727272" transform="translate(82,70)"/>
<path d="M0 0 C0.66 0.66 1.32 1.32 2 2 C-1.465 4.97 -1.465 4.97 -5 8 C-3.95206337 3.80825346 -3.08236365 2.78407039 0 0 Z " fill="#1F3CB4" transform="translate(106,31)"/>
<path d="M0 0 C0.99 0.33 1.98 0.66 3 1 C2.67 2.32 2.34 3.64 2 5 C0.68 4.34 -0.64 3.68 -2 3 C-1.34 2.01 -0.68 1.02 0 0 Z " fill="#606060" transform="translate(69,86)"/>
</svg>
